FDS_states
version=1
nRows=4
nColumns=142
inDegrees=yes

# SIMM Motion File Header:
name FDS_states
datacolumns 142
datarows 4
otherdata 1
range 3.10399746598905190000 3.10674580793989420000
endheader
time	r_z	sternoclavicular_r2	sternoclavicular_r3	unrotscap_r3	unrotscap_r2	acromioclavicular_r2	acromioclavicular_r3	acromioclavicular_r1	unrothum_r1	unrothum_r3	unrothum_r2	elv_angle	shoulder_elv	shoulder1_r2	shoulder_rot	elbow_flexion	pro_sup	deviation	flexion	wrist_hand_r1	wrist_hand_r3	r_z_u	sternoclavicular_r2_u	sternoclavicular_r3_u	unrotscap_r3_u	unrotscap_r2_u	acromioclavicular_r2_u	acromioclavicular_r3_u	acromioclavicular_r1_u	unrothum_r1_u	unrothum_r3_u	unrothum_r2_u	elv_angle_u	shoulder_elv_u	shoulder1_r2_u	shoulder_rot_u	elbow_flexion_u	pro_sup_u	deviation_u	flexion_u	wrist_hand_r1_u	wrist_hand_r3_u	DELT1.activation	DELT1.fiber_length	DELT2.activation	DELT2.fiber_length	DELT3.activation	DELT3.fiber_length	SUPSP.activation	SUPSP.fiber_length	INFSP.activation	INFSP.fiber_length	SUBSC.activation	SUBSC.fiber_length	TMIN.activation	TMIN.fiber_length	TMAJ.activation	TMAJ.fiber_length	PECM1.activation	PECM2.activation	PECM2.fiber_length	PECM3.activation	PECM3.fiber_length	LAT1.activation	LAT1.fiber_length	LAT2.activation	LAT2.fiber_length	LAT3.activation	LAT3.fiber_length	CORB.activation	CORB.fiber_length	TRIlong.activation	TRIlong.fiber_length	TRIlat.activation	TRIlat.fiber_length	TRImed.activation	TRImed.fiber_length	ANC.activation	ANC.fiber_length	SUP.activation	SUP.fiber_length	BIClong.activation	BIClong.fiber_length	BICshort.activation	BICshort.fiber_length	BRA.activation	BRA.fiber_length	BRD.activation	BRD.fiber_length	ECRL.activation	ECRL.fiber_length	ECRB.activation	ECRB.fiber_length	ECU.activation	ECU.fiber_length	FCR.activation	FCR.fiber_length	FCU.activation	FCU.fiber_length	PL.activation	PL.fiber_length	PT.activation	PT.fiber_length	PQ.activation	PQ.fiber_length	FDSL.activation	FDSL.fiber_length	FDSR.activation	FDSR.fiber_length	FDSM.activation	FDSM.fiber_length	FDSI.activation	FDSI.fiber_length	FDPL.activation	FDPL.fiber_length	FDPR.activation	FDPR.fiber_length	FDPM.activation	FDPM.fiber_length	FDPI.activation	FDPI.fiber_length	EDCL.activation	EDCL.fiber_length	EDCR.activation	EDCR.fiber_length	EDCM.activation	EDCM.fiber_length	EDCI.activation	EDCI.fiber_length	EDM.activation	EDM.fiber_length	EIP.activation	EIP.fiber_length	EPL.activation	EPL.fiber_length	EPB.activation	EPB.fiber_length	FPL.activation	FPL.fiber_length	APL.activation	APL.fiber_length
      3.10399746598905190000	     10.00000027505223200000	     -7.77747614393909540000	      3.29417181739362340000	     -3.29417181753856920000	      7.77747614355188690000	     -1.57478071303804380000	     12.72682378372645400000	      5.72061970204357450000	     -5.72061970204097480000	    -12.72682378372375400000	      1.57478071304290720000	     48.34004017516553400000	     32.13825913937796500000	    -48.34004017517007400000	      2.30135795340401470000	     67.58082110277176500000	     18.47690701784959100000	      0.00000118192234739333	      0.00000000009605340589	      0.00000160389359598662	      0.00000000007906297412	     -0.00000000000001091577	     11.16893041837713500000	     -4.73063178075358960000	      4.73063178055202100000	    -11.16893041866258900000	      2.26148121625716620000	    -18.27649569957495500000	     -8.21515903415600950000	      8.21515903415676260000	     18.27649569957514000000	     -2.26148121625419570000	    -69.78786834950575700000	    -46.15250159300934700000	     69.78786834950383900000	    -19.44250917276327700000	     90.54195397641390700000	     -5.87951402124724520000	      0.00000000003520263389	      0.00000000013911312907	     -0.00000000002977035114	     -0.00000000000650258301	      0.10052127768681762000	      0.10574865051015465000	      0.19640093027625297000	      0.08709992203556790600	      0.02200000002778788500	      0.13182168643909803000	      0.06385487639824490000	      0.06482283663891394400	      0.12586035166437434000	      0.07599154718009144800	      0.02077208076740626500	      0.07981597763079718900	      0.02200208996362453300	      0.06629674381649711100	      0.04651080522515260700	      0.14013818713249915000	      0.02000000000000624500	      0.02000000000000779600	      0.10363647841890496000	      0.02000000000000827500	      0.08114896921908912300	      0.02000000000030821600	      0.18027705136038488000	      0.02000000000050961000	      0.14807347524543835000	      0.02000000000019333900	      0.21242826724058655000	      0.02000058576044285200	      0.07092737806460287800	      0.02000000000043792100	      0.17610034065477753000	      0.02000000000000700900	      0.09690115426546372400	      0.02000000000000703600	      0.09184512111975531900	      0.02260643929100316200	      0.01713023175017643100	      0.02000000010009129000	      0.03575997077347463400	      0.07680487664347895900	      0.12690585101768326000	      0.02000000000000000000	      0.14385789412079264000	      0.09936801021030289300	      0.07666733835916135500	      0.09521645204000789300	      0.15602260446146535000	      0.08358072216689869900	      0.07356689193496272800	      0.06050533440152126200	      0.05993382792556657700	      0.05988835871114533300	      0.06838407331275850300	      0.02000000000000000000	      0.05530446456979287700	      0.02000000000000000000	      0.03922386528506227600	      0.02000000000000000000	      0.05591923469203120100	      0.08926920880196524700	      0.04539443062306764600	      0.02530845439809559600	      0.02421796899109547200	      0.02200000004074304000	      0.04119981607547996300	      0.02000000000000000000	      0.06324662921650432700	      0.02000000000000000000	      0.07233431956461129600	      0.02000000000000000000	      0.08454584108524673700	      0.02000000000000000000	      0.07409323077813881300	      0.02000000000000000000	      0.07796275540593419800	      0.02000000000000000000	      0.07418268879338105200	      0.02000000000000000000	      0.07374312538507586700	      0.02400002015137205400	      0.07953052460408421800	      0.04977638046489620700	      0.06735195141418186300	      0.03800104112288505600	      0.07934508361484965400	      0.02718176789595931600	      0.07280494958105621100	      0.02659427482910245800	      0.07822089985090123500	      0.02405203986852899300	      0.06581365750397422100	      0.02400000000990072000	      0.06257816539772291500	      0.02000000000000000000	      0.06764417316962012500	      0.02000000000000000000	      0.05968006001958335600	      0.02000000000000033700	      0.07039143005909709300
      3.10510005581421260000	     10.00000027505223200000	     -7.76516265239726080000	      3.28895640354128150000	     -3.28895640368644940000	      7.76516265200973700000	     -1.57228748147644470000	     12.70667436325546400000	      5.71156267621454190000	     -5.71156267621194220000	    -12.70667436325276400000	      1.57228748148131170000	     48.26304599484137000000	     32.08737705696611900000	    -48.26304599484591800000	      2.27991626782577270000	     67.68057247104805200000	     18.47039005421946500000	      0.00000118192238624359	      0.00000000009620682344	      0.00000160389356377143	      0.00000000007905542631	     -0.00000000000001084484	     11.16658650947187700000	     -4.72963901156729170000	      4.72963901136589370000	    -11.16658650975650400000	      2.26100662238236750000	    -18.27266019882097600000	     -8.21343500296378260000	      8.21343500296451980000	     18.27266019882117100000	     -2.26100662237940230000	    -69.87283029843129600000	    -46.14281604072576200000	     69.87283029842934900000	    -19.45090338320118000000	     90.39835673245865200000	     -5.94035071473373130000	      0.00000000003532037044	      0.00000000013907115912	     -0.00000000002921935530	     -0.00000000000673278181	      0.10032822346167618000	      0.10579739256789274000	      0.19725148003093798000	      0.08710764563899998900	      0.02200000002738260900	      0.13178895239835792000	      0.06412907711037588200	      0.06482114474939045000	      0.12570572200984254000	      0.07599017364865293100	      0.02076085907717806200	      0.07981601672760797700	      0.02200205948214668500	      0.06628922767511616400	      0.04637000395994168200	      0.14010644031106650000	      0.02000000000000615500	      0.02000000000000768200	      0.10364862110205468000	      0.02000000000000815400	      0.08114911146763038900	      0.02000000000030374700	      0.18025203732396908000	      0.02000000000050222000	      0.14803839238392241000	      0.02000000000019053600	      0.21238950634755452000	      0.02000057726507677900	      0.07093477134485339000	      0.02000000000043156800	      0.17610867955871404000	      0.02000000000000690800	      0.09693561045150490800	      0.02000000000000693600	      0.09187950357393516500	      0.02259757973689478400	      0.01715016202667434000	      0.02000000009863965600	      0.03575914174469768000	      0.07678429621190603600	      0.12685247211814812000	      0.02000000000000000000	      0.14379320772980794000	      0.09923676918917290200	      0.07663530678261593100	      0.09512118263952042100	      0.15591082574150919000	      0.08361114085772820800	      0.07352756926014332500	      0.06044116515036880600	      0.05993381228953534300	      0.05987599661051779700	      0.06839219961591921900	      0.02000000000000000000	      0.05528156139191639500	      0.02000000000000000000	      0.03920469955099051300	      0.02000000000000000000	      0.05589355735185466000	      0.08915833051696728200	      0.04537428035722158200	      0.02528919525004159200	      0.02421883259064476800	      0.02200000004014881700	      0.04117632520423118000	      0.02000000000000000000	      0.06322700597396016500	      0.02000000000000000000	      0.07233455366190035000	      0.02000000000000000000	      0.08454611289952272700	      0.02000000000000000000	      0.07409338139007691500	      0.02000000000000000000	      0.07796291628234410000	      0.02000000000000000000	      0.07418289787022515300	      0.02000000000000000000	      0.07374336312220569600	      0.02400001985583013700	      0.07953332202643533000	      0.04977607330084771200	      0.06735689165366234900	      0.03800251376316975800	      0.07934961560300678200	      0.02718216392185620800	      0.07280820469800959600	      0.02659331550726866400	      0.07822695572657412100	      0.02405127653744251100	      0.06581364266622126400	      0.02400000000975551600	      0.06257798143022094700	      0.02000000000000000000	      0.06764417316962013900	      0.02000000000000000000	      0.05968006001958337000	      0.02000000000000033300	      0.07039143005909707900
      3.10592293187705340000	     10.00000027505223200000	     -7.75597470910186450000	      3.28506482440838180000	     -3.28506482455371620000	      7.75597470871410620000	     -1.57042710985622370000	     12.69163949421823300000	      5.70480460605553310000	     -5.70480460605293160000	    -12.69163949421553300000	      1.57042710986109290000	     48.20552304617022800000	     32.04941043422849800000	    -48.20552304617477500000	      2.26390895059873150000	     67.75491499450244200000	     18.46547602096165300000	      0.00000118192241542569	      0.00000000009632149741	      0.00000160389353952614	      0.00000000007905025544	     -0.00000000000001080702	     11.16468390247491300000	     -4.72883315704220040000	      4.72883315684031480000	    -11.16468390275995900000	      2.26062138316756610000	    -18.26954683099732800000	     -8.21203556555392570000	      8.21203556555468420000	     18.26954683099754100000	     -2.26062138316459920000	    -69.93674566872022100000	    -46.13495404596469700000	     69.93674566871827400000	    -19.45458293306376200000	     90.29114814853963400000	     -6.00523669518270340000	      0.00000000003556648516	      0.00000000013965903162	     -0.00000000002959427826	     -0.00000000000614753350	      0.10018643860836711000	      0.10583375031750440000	      0.19781297513861801000	      0.08711350797488280600	      0.02200000002708400400	      0.13176451933926800000	      0.06430299169876756100	      0.06481997280729760700	      0.12559225071951186000	      0.07598914728311841100	      0.02075259083560139500	      0.07981606028684566600	      0.02200203702351141000	      0.06628360676782192600	      0.04626638680685745500	      0.14008715410662592000	      0.02000000000000608900	      0.02000000000000759900	      0.10365768082653269000	      0.02000000000000806700	      0.08114922377563844900	      0.02000000000030045500	      0.18023336996268779000	      0.02000000000049677300	      0.14801221477539639000	      0.02000000000018846800	      0.21236059049528871000	      0.02000057100527091000	      0.07094027873503625000	      0.02000000000042688800	      0.17611483678863910000	      0.02000000000000683200	      0.09696127296798220900	      0.02000000000000686000	      0.09190511121841374300	      0.02259105233282370000	      0.01716500697813200600	      0.02000000009757001800	      0.03575851856904396800	      0.07676916326861393800	      0.12681265378852841000	      0.02000000000000000000	      0.14374493860558343000	      0.09914036615093746500	      0.07661140538814241500	      0.09505118720819993900	      0.15582742466275465000	      0.08363059145512637100	      0.07349820994953502900	      0.06039395778570735800	      0.05993385063209996600	      0.05986690096418851400	      0.06839825072748544100	      0.02000000000000000000	      0.05526448730258024700	      0.02000000000000000000	      0.03919040073532176900	      0.02000000000000000000	      0.05587440820198071700	      0.08907685235998172300	      0.04535927419560768800	      0.02527500753041027000	      0.02421948497165898500	      0.02200000003971099700	      0.04115880419563659700	      0.02000000000000000000	      0.06321237328019509200	      0.02000000000000000000	      0.07233472960865430800	      0.02000000000000000000	      0.08454631704318760200	      0.02000000000000000000	      0.07409349456729784300	      0.02000000000000000000	      0.07796303716101273000	      0.02000000000000000000	      0.07418305495115248800	      0.02000000000000000000	      0.07374354181365172500	      0.02400001963809169200	      0.07953539448006141700	      0.04977584721066600400	      0.06736055707487176300	      0.03800343769177443700	      0.07935297992499339100	      0.02718241109108135800	      0.07281062078311399700	      0.02659260880145160700	      0.07823145875487097500	      0.02405071416067876300	      0.06581363133951499700	      0.02400000000964853900	      0.06257784322686313300	      0.02000000000000000000	      0.06764417316962015300	      0.02000000000000000000	      0.05968006001958337000	      0.02000000000000033000	      0.07039143005909707900
      3.10674580793989420000	     10.00000027505223200000	     -7.74678840035314220000	      3.28117393759230640000	     -3.28117393773780690000	      7.74678839996514770000	     -1.56856706919845480000	     12.67660729990312200000	      5.69804773816570800000	     -5.69804773816310650000	    -12.67660729990042200000	      1.56856706920332640000	     48.14794735922656300000	     32.01145056580083500000	    -48.14794735923111800000	      2.24789882545707400000	     67.82916952211576200000	     18.46050801902069300000	      0.00000118192244481510	      0.00000000009643618359	      0.00000160389351444521	      0.00000000007904600255	     -0.00000000000001093557	     11.16261183161028600000	     -4.72795552562069950000	      4.72795552541908390000	    -11.16261183189676100000	      2.26020183096690540000	    -18.26615615769193100000	     -8.21051148123849470000	      8.21051148123924430000	     18.26615615769216200000	     -2.26020183096396780000	    -70.00100232925544200000	    -46.12639178886137600000	     70.00100232925349500000	    -19.45787753918027700000	     90.18454284340279500000	     -6.07011693275306640000	      0.00000000003597278663	      0.00000000013972642283	     -0.00000000003148946773	     -0.00000000000421930446	      0.10004658328788839000	      0.10587008979941073000	      0.19831886218492503000	      0.08711948662688331900	      0.02200000002678865300	      0.13174008299509793000	      0.06445443218441833400	      0.06481888118741244200	      0.12548040248486872000	      0.07598811944499418700	      0.02074441263374714200	      0.07981611532934429500	      0.02200201480978875000	      0.06627797642354528500	      0.04616400409077309900	      0.14006461706272380000	      0.02000000000000602300	      0.02000000000000751500	      0.10366673855231942000	      0.02000000000000798000	      0.08114934155325558000	      0.02000000000029719700	      0.18021470337132303000	      0.02000000000049138500	      0.14798604166584234000	      0.02000000000018642400	      0.21233168482250003000	      0.02000056481334587200	      0.07094577746180233400	      0.02000000000042226000	      0.17612093827270087000	      0.02000000000000675900	      0.09698689069478287600	      0.02000000000000678700	      0.09193067421573521100	      0.02258459634513583500	      0.01717982710556611700	      0.02000000009651197900	      0.03575789048328033300	      0.07675422117220981300	      0.12677285162367846000	      0.02000000000000000000	      0.14369667382347279000	      0.09904526214488684800	      0.07658750742404588100	      0.09498212217062705600	      0.15574404199685485000	      0.08364764345740982600	      0.07346884459990703200	      0.06034732605796642300	      0.05993392812305804700	      0.05985791521799360000	      0.06840428960402583600	      0.02000000000000000000	      0.05524742928256600600	      0.02000000000000000000	      0.03917610601882278600	      0.02000000000000000000	      0.05585527114066991800	      0.08899644476200165000	      0.04534429313613185000	      0.02526097649702360700	      0.02422014275442955400	      0.02200000003927795100	      0.04114129218850231400	      0.02000000000000000000	      0.06319775101138679100	      0.02000000000000000000	      0.07233490670565397000	      0.02000000000000000000	      0.08454652242891712300	      0.02000000000000000000	      0.07409360847023038800	      0.02000000000000000000	      0.07796315880753446100	      0.02000000000000000000	      0.07418321302018003600	      0.02000000000000000000	      0.07374372167733410400	      0.02400001942274096100	      0.07953745389452333800	      0.04977562377770002700	      0.06736420419750395500	      0.03800423472817995200	      0.07935632930420605200	      0.02718262337109832500	      0.07281302550812666900	      0.02659190990262979400	      0.07823594763865837600	      0.02405015795266250700	      0.06581361978388071400	      0.02400000000954273500	      0.06257770416446147000	      0.02000000000000000000	      0.06764417316962013900	      0.02000000000000000000	      0.05968006001958337700	      0.02000000000000032700	      0.07039143005909710700
